<svg xmlns="http://www.w3.org/2000/svg" xmlns:xlink="http://www.w3.org/1999/xlink" viewBox="0 0 30 30" fill="#5B5B5B">
  <path d="M22.675781 4C22.541963 3.9980344 22.409666 4.0068453 22.277344 4.0253906C21.218763 4.1737531 20.49621 4.845587 19.871094 5.4707031C19.791232 5.5505647 19.757523 5.6342587 19.689453 5.7167969C18.643952 5.4043772 17.039477 5 15 5C12.960165 5 11.355095 5.4036016 10.308594 5.7167969C10.24021 5.6339617 10.20759 5.5509463 10.126953 5.4707031C9.5022664 4.8461193 8.7782253 4.1755577 7.7207031 4.0273438C6.6621224 3.8789813 5.5503418 4.3930175 4.4707031 5.4726562C3.3910644 6.552295 2.8770282 7.6640756 3.0253906 8.7226562C3.1737531 9.7812371 3.845587 10.50379 4.4707031 11.128906C4.6703131 11.328516 4.9212212 11.394709 5.1464844 11.539062C4.2232495 13.532853 3 16.775424 3 21 A 1.0001 1.0001 0 0 0 3.6289062 21.927734L8.4902344 23.871094C8.8080244 24.227827 11.334887 27 15 27C18.665113 27 21.191976 24.227827 21.509766 23.871094L26.371094 21.927734 A 1.0001 1.0001 0 0 0 27 21C27 16.77522 25.777569 13.531717 24.853516 11.537109C25.077916 11.392992 25.328701 11.327549 25.527344 11.128906C26.15246 10.50379 26.824294 9.7792839 26.972656 8.7207031C27.121019 7.6621224 26.606982 6.5503418 25.527344 5.4707031C24.58266 4.5260193 23.61251 4.0137592 22.675781 4 z M 22.554688 6.0058594C22.842856 5.9654714 23.26592 6.0374044 24.113281 6.8847656C24.960643 7.7321269 25.032574 8.1551901 24.992188 8.4433594C24.951799 8.7315286 24.660165 9.1679599 24.113281 9.7148438C23.891256 9.9368686 23.627819 10.087118 23.320312 10.1875 A 1.0001 1.0001 0 0 0 23.242188 10.216797C22.774555 9.293392 22.0331 8.3606585 20.888672 7.4492188 A 1.0001 1.0001 0 0 0 20.960938 7.3378906C21.065283 7.1488112 21.168967 7.000955 21.285156 6.8847656C21.83204 6.3378817 22.266518 6.0462469 22.554688 6.0058594 z M 7.4433594 6.0078125C7.7315286 6.0482001 8.1679599 6.3398348 8.7148438 6.8867188 A 1.0001 1.0001 0 0 0 8.7148438 6.8886719C8.8297857 7.0030532 8.9336912 7.1489078 9.0390625 7.3398438 A 1.0001 1.0001 0 0 0 9.1738281 7.5273438C8.3855124 8.2828086 7.5331415 9.2573838 6.875 10.277344 A 1.0001 1.0001 0 0 0 6.6796875 10.189453C6.37255 10.088961 6.1061073 9.9361854 5.8847656 9.7148438C5.3378817 9.1679598 5.0462469 8.7334818 5.0058594 8.4453125C4.9654718 8.1571432 5.0374043 7.73408 5.8847656 6.8867188C6.7321269 6.0393575 7.1551901 5.9674249 7.4433594 6.0078125 z M 11 13C11.552 13 12 13.448 12 14C12 14.552 11.552 15 11 15C10.448 15 10 14.552 10 14C10 13.448 10.448 13 11 13 z M 19 13C19.552 13 20 13.448 20 14C20 14.552 19.552 15 19 15C18.448 15 18 14.552 18 14C18 13.448 18.448 13 19 13 z M 13 17L17 17C19.022422 18.388377 19.673877 21.068669 19.888672 22.677734C19.125879 23.374513 17.12877 25 15 25C12.868185 25 10.869556 23.37075 10.109375 22.675781C10.322782 21.054806 10.973386 18.352286 13 17 z M 13 20C13 21 13 22 14 22L16 22C17 22 17 21 17 20L13 20 z" fill="#5B5B5B" />
</svg>