<svg xmlns="http://www.w3.org/2000/svg" xmlns:xlink="http://www.w3.org/1999/xlink" viewBox="0 0 50 50" fill="#5B5B5B">
  <path d="M35.546875 3C33.414063 3 31.863281 3.699219 31.035156 4.191406C30.273438 3.6875 28.890625 3 27 3C26.65625 3 26.320313 3.03125 25.988281 3.085938C25.847656 3.109375 25.71875 3.148438 25.582031 3.183594C25.441406 3.214844 25.304688 3.246094 25.167969 3.285156C21.445313 4.546875 21 9.679688 21 12.054688C21 18.308594 23.832031 24.476563 27.582031 26.675781C28.378906 25.039063 29.949219 21.320313 31.070313 18.035156C31.25 17.511719 31.816406 17.234375 32.339844 17.410156C32.863281 17.589844 33.144531 18.15625 32.964844 18.679688C31.644531 22.539063 29.480469 27.601563 28.828125 28.5625C28.636719 28.84375 28.324219 29 28 29C27.871094 29 27.738281 28.976563 27.613281 28.921875C22.703125 26.867188 19 19.617188 19 12.054688C19 10.476563 19.222656 6.71875 21.074219 4.023438C19.273438 3.863281 16.769531 3.734375 14.859375 4.011719C6.445313 5.21875 2 11.015625 2 20.773438C2 25.9375 3.804688 32.320313 4.074219 33.242188L5.003906 45.078125C5.042969 45.597656 5.476563 46 6 46L13 46C13.519531 46 13.949219 45.605469 13.996094 45.085938L14.902344 34.734375C15.777344 34.855469 17.027344 35 18 35C18.976563 35 20.21875 34.835938 21.097656 34.695313L22.003906 45.085938C22.050781 45.605469 22.480469 46 23 46L30 46C30.554688 46 31 45.554688 31 45C31 35.40625 32.3125 32.117188 33.472656 29.214844C33.929688 28.078125 34.363281 26.988281 34.710938 25.625C35.246094 25.847656 35.785156 26.039063 36.3125 26.226563C39.101563 27.21875 41.113281 27.933594 41 32.148438C40.949219 34.039063 40.433594 35 39.460938 35C38.433594 35 37.511719 33.460938 37.269531 32.921875C37.148438 32.648438 36.910156 32.441406 36.621094 32.363281C36.332031 32.28125 36.019531 32.335938 35.773438 32.511719L33.4375 34.179688C33.066406 34.445313 32.921875 34.925781 33.085938 35.351563C33.15625 35.539063 34.929688 40 40 40C45.308594 40 48 32.800781 48 18.601563C48 7.085938 41.289063 3 35.546875 3 Z M 13 45L8.09375 45C8.035156 44.84375 8 44.675781 8 44.5C8 43.671875 8.671875 43 9.5 43C10.328125 43 11 43.671875 11 44.5C11 43.671875 11.671875 43 12.5 43C12.738281 43 12.960938 43.0625 13.160156 43.160156 Z M 30 45L25.09375 45C25.035156 44.84375 25 44.675781 25 44.5C25 43.671875 25.671875 43 26.5 43C27.328125 43 28 43.671875 28 44.5C28 43.671875 28.671875 43 29.5 43C29.683594 43 29.855469 43.039063 30.019531 43.097656C30.007813 43.707031 30 44.335938 30 45 Z M 41 17C40.445313 17 40 16.550781 40 16C40 15.449219 40.445313 15 41 15C41.554688 15 42 15.449219 42 16C42 16.550781 41.554688 17 41 17Z" fill="#5B5B5B" />
</svg>