<svg xmlns="http://www.w3.org/2000/svg" xmlns:xlink="http://www.w3.org/1999/xlink" viewBox="0 0 26 26" fill="#5B5B5B">
  <path d="M19.800781 22.199219C19.800781 22.898438 19.699219 25.300781 17.300781 25.300781C16 25.300781 15.398438 23.101563 12.5 23.101563C10.601563 23.101563 10.898438 23.898438 7.398438 23.898438C3.800781 23.898438 1.699219 22.199219 1.699219 19.5C1.699219 16.398438 3.601563 17.398438 5.5 15.800781C7.601563 14.101563 7.398438 12.800781 10 12.800781C12.199219 12.800781 13.398438 15.800781 14.898438 16.398438C17.101563 17.5 19.800781 20.5 19.800781 22.199219 Z M 4 12.101563C4 10.601563 3.398438 9.300781 2.199219 9.300781C0.898438 9.300781 0.300781 10.601563 0.300781 11.601563C0.300781 13 1.101563 14.398438 2.199219 14.398438C3.300781 14.398438 3.898438 13.601563 4 12.101563 Z M 13 10.699219C14.101563 10.699219 15.5 8.699219 15.601563 7.199219C15.699219 5.699219 15.5 4.199219 14.300781 4.199219C13 4.199219 11.300781 6.101563 11.300781 7.601563C11.199219 9 11.898438 10.699219 13 10.699219 Z M 17.398438 14.398438C19 14.398438 20 12.601563 20 11.101563C20 9.601563 19.699219 8.300781 18.5 8.300781C16.601563 8.300781 15.601563 10.199219 15.601563 11.699219C15.601563 13.199219 16.300781 14.398438 17.398438 14.398438 Z M 22.5 13.199219C20.5 13.199219 19.398438 15.398438 19.398438 17C19.398438 18.398438 20.300781 19.5 21.398438 19.5C23 19.5 24 17.898438 24.101563 16.398438C24.101563 14.800781 23.699219 13.199219 22.5 13.199219 Z M 7 11.199219C8.101563 11.199219 9 10.398438 9 8.898438C9 6.398438 10.101563 3.898438 8.898438 3.898438C6.5 3.898438 5.101563 7.398438 5.101563 8.398438C5.101563 9.800781 5.898438 11.199219 7 11.199219 Z M 2.300781 8.398438C2.699219 8.601563 3 8.699219 3 8.199219C3 7.5 3.101563 6.300781 2.699219 6.199219C2.5 6.199219 1.898438 7.398438 1.699219 8.101563C1.5 8.800781 2 8.398438 2.300781 8.398438 Z M 9.101563 2.699219C9.5 2.800781 9.800781 3 9.800781 2.601563C9.800781 1.898438 10 0.800781 9.601563 0.699219C9.398438 0.699219 8.601563 1.800781 8.398438 2.398438C8.199219 2.800781 8.699219 2.5 9.101563 2.699219 Z M 15.601563 3.101563C15.898438 3.199219 16.300781 3.398438 16.199219 2.898438C16.199219 2.101563 16.101563 0.898438 15.699219 0.800781C15.5 0.800781 15 1.898438 14.800781 2.5C14.699219 3.101563 15.199219 2.898438 15.601563 3.101563 Z M 20.898438 6.300781C21.199219 6.398438 21.601563 6.601563 21.5 6.101563C21.5 5.300781 21.300781 3.699219 20.898438 3.601563C20.699219 3.601563 20.398438 4.800781 20.101563 5.5C20 6.199219 20.5 6.199219 20.898438 6.300781 Z M 25.101563 9.898438C24.898438 9.898438 24.5 10.800781 24.398438 11.398438C24.199219 12 24.699219 11.898438 25.101563 12C25.398438 12.101563 25.800781 12.300781 25.699219 11.800781C25.601563 11 25.5 9.898438 25.101563 9.898438Z" fill="#5B5B5B" />
</svg>