<svg xmlns="http://www.w3.org/2000/svg" xmlns:xlink="http://www.w3.org/1999/xlink" viewBox="0 0 50 50" fill="#5B5B5B">
  <path d="M30 1C27.796875 1 25.917969 2.148438 24.875 3.875C23.957031 2.742188 22.566406 2 21 2C20.449219 2 20 2.449219 20 3C20 3.550781 20.449219 4 21 4C22.308594 4 23.402344 4.859375 23.8125 6.03125C11.6875 6.40625 4.6875 12.511719 4.03125 23.34375C1.621094 24.191406 0 26.414063 0 29C0 32.3125 2.554688 34.921875 5.84375 35C9.238281 43.660156 16.515625 49 25 49C33.484375 49 40.761719 43.660156 44.15625 35C47.445313 34.921875 50 32.3125 50 29C50 26.40625 48.316406 24.09375 45.96875 23.3125C45.300781 12.476563 38.28125 6.386719 26.125 6.03125C26.550781 4.273438 28.09375 3 30 3C30.554688 3 31 2.550781 31 2C31 1.449219 30.554688 1 30 1 Z M 20 17.90625C21.800781 17.90625 23.5 18.414063 25 19.3125C26.5 18.613281 28.199219 17.90625 30 17.90625C35.5 17.90625 40 22.207031 40 27.40625C40 31.007813 38 34.085938 35 35.6875C34.5 40.386719 30.199219 44 25 44C19.800781 44 15.800781 40.488281 15 35.6875C12 33.988281 10 31.007813 10 27.40625C10 22.207031 14.5 17.90625 20 17.90625 Z M 18 27C16.894531 27 16 27.894531 16 29C16 30.105469 16.894531 31 18 31C19.105469 31 20 30.105469 20 29C20 27.894531 19.105469 27 18 27 Z M 31 27C29.894531 27 29 27.894531 29 29C29 30.105469 29.894531 31 31 31C32.105469 31 33 30.105469 33 29C33 27.894531 32.105469 27 31 27Z" fill="#5B5B5B" />
</svg>