<svg xmlns="http://www.w3.org/2000/svg" xmlns:xlink="http://www.w3.org/1999/xlink" viewBox="0 0 50 50" fill="#5B5B5B">
  <path d="M9 3C5.27 3 1 9.39 1 12C1 14.09 2.7800781 15.829844 4.8300781 16.589844C4.9400781 16.419844 5.0594531 16.249844 5.1894531 16.089844C5.0594531 15.389844 5 14.69 5 14C5 9.54 7.4405469 5.6400781 11.060547 3.5800781C10.460547 3.2100781 9.75 3 9 3 z M 25 3C24.25 3 23.539453 3.2100781 22.939453 3.5800781C26.559453 5.6400781 29 9.54 29 14C29 14.69 28.940547 15.389844 28.810547 16.089844C28.940547 16.249844 29.059922 16.419844 29.169922 16.589844C31.219922 15.829844 33 14.09 33 12C33 9.39 28.73 3 25 3 z M 17 4C11.48 4 7 8.48 7 14C7 14.91 7.129375 15.790859 7.359375 16.630859C5.899375 18.160859 5 20.22 5 22.5C5 27.19 8.81 31 13.5 31L16 31L16 24.710938C14.83 24.050937 14 22.43 14 22C14 21.45 15.34 21 17 21C18.66 21 20 21.45 20 22C20 22.43 19.17 24.050938 18 24.710938L18 31L20.5 31C25.19 31 29 27.19 29 22.5C29 20.22 28.100625 18.160859 26.640625 16.630859C26.870625 15.790859 27 14.91 27 14C27 8.48 22.52 4 17 4 z M 13.5 15C14.33 15 15 15.67 15 16.5C15 17.33 14.33 18 13.5 18C12.67 18 12 17.33 12 16.5C12 15.67 12.67 15 13.5 15 z M 20.5 15C21.33 15 22 15.67 22 16.5C22 17.33 21.33 18 20.5 18C19.67 18 19 17.33 19 16.5C19 15.67 19.67 15 20.5 15 z M 44.109375 21.009766C43.849375 20.979766 43.580859 21.050703 43.380859 21.220703L38.820312 24.859375C37.880313 24.549375 35.84 24 33 24C32.23 24 31.530859 24.039375 30.880859 24.109375C30.100859 29.139375 25.74 33 20.5 33L18.990234 33C18.500234 34.55 18.03 36.840234 18 39.990234C18 40.170234 18.050625 40.35 18.140625 40.5C18.290625 40.77 22.06 47 33 47C43.94 47 47.709375 40.77 47.859375 40.5C47.949375 40.35 48 40.170234 48 39.990234C47.96 35.060234 46.829219 32.240547 46.199219 31.060547C46.569219 30.450547 47 29.44 47 28C47 24.19 44.869297 21.490859 44.779297 21.380859C44.619297 21.170859 44.369375 21.039766 44.109375 21.009766 z M 29.5 33C30.33 33 31 33.67 31 34.5C31 35.33 30.33 36 29.5 36C28.67 36 28 35.33 28 34.5C28 33.67 28.67 33 29.5 33 z M 36.5 33C37.33 33 38 33.67 38 34.5C38 35.33 37.33 36 36.5 36C35.67 36 35 35.33 35 34.5C35 33.67 35.67 33 36.5 33 z M 33 37C34.66 37 36 37.45 36 38C36 38.35 35.210859 39.440937 34.380859 40.210938C34.730859 40.590938 35.28 41 36 41L36 43C34.64 43 33.64 42.320156 33 41.660156C32.36 42.320156 31.36 43 30 43L30 41C30.72 41 31.269141 40.590937 31.619141 40.210938C30.789141 39.440937 30 38.35 30 38C30 37.45 31.34 37 33 37 z" fill="#5B5B5B" />
</svg>